<svg id="Layer_2" data-name="Layer 2" xmlns="http://www.w3.org/2000/svg" viewBox="0 0 105.25 199.41"><defs><style>.cls-1{fill:#00bfd8;}</style></defs><title>services-icon-2</title><path class="cls-1" d="M40,34.57A17.29,17.29,0,1,0,22.75,17.28,17.29,17.29,0,0,0,40,34.57ZM40,6A11.25,11.25,0,1,1,28.79,17.29h0A11.26,11.26,0,0,1,40,6Z" transform="translate(0 0)"/><path class="cls-1" d="M40,55.82a3,3,0,0,0-3,3v4.2a3,3,0,0,0,6.05.11V58.85A3,3,0,0,0,40,55.82Z" transform="translate(0 0)"/><path class="cls-1" d="M40,72.63a3,3,0,0,0-3,3h0v4.2a3,3,0,0,0,6.05,0v-4.2A3,3,0,0,0,40,72.63Z" transform="translate(0 0)"/><path class="cls-1" d="M40,89.45a3,3,0,0,0-3,3h0v2a3,3,0,0,0,6.05,0v-2A3,3,0,0,0,40,89.45Z" transform="translate(0 0)"/><path class="cls-1" d="M105.25,22.41a11.1,11.1,0,0,0-3.27-7.9,11.45,11.45,0,0,0-15.79,0L63.56,37.15a13.75,13.75,0,0,1-9.78,4.05H19.31A19.33,19.33,0,0,0,0,60.51v50.37A11.17,11.17,0,0,0,11.17,122a10.87,10.87,0,0,0,5.14-1.3v65.41a13.41,13.41,0,0,0,23.74,8.4,13.4,13.4,0,0,0,23.73-8.4V73.26A11,11,0,0,1,67,65.48l35-35.17A11.09,11.09,0,0,0,105.25,22.41ZM57.74,186.16a7.34,7.34,0,0,1-14.67,0v-58.5a3,3,0,0,0-6-.11.2.2,0,0,0,0,.11v58.5a7.34,7.34,0,0,1-14.67,0V113H57.74v73.14ZM97.7,26l-35,35.18a17,17,0,0,0-5,12V107H22.35l0-43.64a3,3,0,0,0-6-.11v47.66a5.13,5.13,0,0,1-10.25,0V60.51A13.29,13.29,0,0,1,19.31,47.24H37.22a3,3,0,0,0,5.63,0H53.78a19.72,19.72,0,0,0,14-5.82L90.46,18.79a5.25,5.25,0,0,1,7.24,0,5.12,5.12,0,0,1,0,7.24Z" transform="translate(0 0)"/></svg>